<svg width="17" height="17" viewBox="0 0 17 17" fill="none" xmlns="http://www.w3.org/2000/svg">
<path d="M3.82243 16.375V5.86328H0.547581V16.375H3.82243ZM2.1674 4.45703C3.22381 4.45703 4.06893 3.57812 4.06893 2.52344C4.06893 1.50391 3.22381 0.660156 2.1674 0.660156C1.14621 0.660156 0.301086 1.50391 0.301086 2.52344C0.301086 3.57812 1.14621 4.45703 2.1674 4.45703ZM16.0415 16.375H16.0767V10.6094C16.0767 7.79687 15.4429 5.61719 12.1328 5.61719C10.5482 5.61719 9.49181 6.49609 9.03404 7.30469H8.99882V5.86328H5.86482V16.375H9.13968V11.1719C9.13968 9.80078 9.38617 8.5 11.0764 8.5C12.7667 8.5 12.8019 10.0469 12.8019 11.2774V16.375H16.0415Z" fill="#292F36"/>
</svg>
