<svg width="18" height="18" viewBox="0 0 18 18" fill="none" xmlns="http://www.w3.org/2000/svg">
<path d="M8.78093 4.98242C6.40206 4.98242 4.5064 6.91211 4.5064 9.25C4.5064 11.625 6.40206 13.5176 8.78093 13.5176C11.1226 13.5176 13.0555 11.625 13.0555 9.25C13.0555 6.91211 11.1226 4.98242 8.78093 4.98242ZM8.78093 12.0332C7.25697 12.0332 5.9932 10.8086 5.9932 9.25C5.9932 7.72851 7.2198 6.50391 8.78093 6.50391C10.3049 6.50391 11.5315 7.72851 11.5315 9.25C11.5315 10.8086 10.3049 12.0332 8.78093 12.0332ZM14.2078 4.83398C14.2078 4.27734 13.7617 3.83203 13.2041 3.83203C12.6466 3.83203 12.2006 4.27734 12.2006 4.83398C12.2006 5.39062 12.6466 5.83594 13.2041 5.83594C13.7617 5.83594 14.2078 5.39062 14.2078 4.83398ZM17.0327 5.83594C16.9583 4.5 16.6609 3.3125 15.6945 2.34766C14.7281 1.38281 13.5387 1.08594 12.2006 1.01172C10.8253 0.9375 6.69943 0.9375 5.32414 1.01172C3.98603 1.08594 2.83376 1.38281 1.83018 2.34766C0.863762 3.3125 0.566404 4.5 0.492064 5.83594C0.417725 7.20898 0.417725 11.3281 0.492064 12.7012C0.566404 14.0371 0.863762 15.1875 1.83018 16.1895C2.83376 17.1543 3.98603 17.4512 5.32414 17.5254C6.69943 17.5996 10.8253 17.5996 12.2006 17.5254C13.5387 17.4512 14.7281 17.1543 15.6945 16.1895C16.6609 15.1875 16.9583 14.0371 17.0327 12.7012C17.107 11.3281 17.107 7.20898 17.0327 5.83594ZM15.2484 14.1485C14.9883 14.8906 14.3936 15.4473 13.6873 15.7442C12.5723 16.1895 9.97037 16.0781 8.78093 16.0781C7.55433 16.0781 4.95244 16.1895 3.87451 15.7442C3.13113 15.4473 2.57357 14.8906 2.27622 14.1485C1.83018 13.0723 1.94169 10.4746 1.94169 9.25C1.94169 8.0625 1.83018 5.46484 2.27622 4.35156C2.57357 3.64648 3.13113 3.08984 3.87451 2.79297C4.95244 2.34766 7.55433 2.45898 8.78093 2.45898C9.97037 2.45898 12.5723 2.34766 13.6873 2.79297C14.3936 3.05273 14.9512 3.64648 15.2484 4.35156C15.6945 5.46484 15.583 8.0625 15.583 9.25C15.583 10.4746 15.6945 13.0723 15.2484 14.1485Z" fill="#292F36"/>
</svg>
