<svg width="19" height="15" viewBox="0 0 19 15" fill="none" xmlns="http://www.w3.org/2000/svg">
<path d="M16.2444 3.96875C16.9486 3.44141 17.5826 2.80859 18.0755 2.07031C17.4416 2.35156 16.7022 2.5625 15.9627 2.63281C16.7374 2.17578 17.3008 1.47266 17.5826 0.59375C16.8782 1.01563 16.0683 1.33203 15.2584 1.50781C14.5542 0.769531 13.6034 0.347656 12.547 0.347656C10.5046 0.347656 8.84959 2 8.84959 4.03906C8.84959 4.32031 8.88479 4.60156 8.95523 4.88281C5.89165 4.70703 3.14499 3.23047 1.31389 1.01563C0.996971 1.54297 0.820904 2.17578 0.820904 2.87891C0.820904 4.14453 1.45474 5.26953 2.47593 5.9375C1.87731 5.90234 1.27868 5.76172 0.785691 5.48047V5.51562C0.785691 7.30859 2.05338 8.78516 3.74363 9.13672C3.46192 9.20703 3.10978 9.27734 2.79286 9.27734C2.54637 9.27734 2.33509 9.24219 2.08859 9.20703C2.54637 10.6836 3.91969 11.7383 5.53952 11.7735C4.27182 12.7578 2.68722 13.3555 0.961758 13.3555C0.644837 13.3555 0.363129 13.3203 0.0814209 13.2852C1.70124 14.3399 3.63798 14.9375 5.7508 14.9375C12.547 14.9375 16.2444 9.34766 16.2444 4.46094C16.2444 4.28516 16.2444 4.14453 16.2444 3.96875Z" fill="#292F36"/>
</svg>
